<svg xmlns="http://www.w3.org/2000/svg" viewBox="0 0 1200 800">
  <rect width="1200" height="800" fill="#003F87"/>
  <rect y="300" width="1200" height="200" fill="#fff"/>
  <rect x="500" width="200" height="800" fill="#fff"/>
  <g transform="translate(200, 100)">
    <path d="M 100,0 L 110,40 L 125,35 L 115,65 L 145,80 L 115,90 L 125,120 L 105,105 L 100,140 L 95,105 L 75,120 L 85,90 L 55,80 L 85,65 L 75,35 L 90,40 Z" fill="#fff"/>
  </g>
  <g transform="translate(700, 100)">
    <path d="M 100,0 L 110,40 L 125,35 L 115,65 L 145,80 L 115,90 L 125,120 L 105,105 L 100,140 L 95,105 L 75,120 L 85,90 L 55,80 L 85,65 L 75,35 L 90,40 Z" fill="#fff"/>
  </g>
  <g transform="translate(200, 560)">
    <path d="M 100,0 L 110,40 L 125,35 L 115,65 L 145,80 L 115,90 L 125,120 L 105,105 L 100,140 L 95,105 L 75,120 L 85,90 L 55,80 L 85,65 L 75,35 L 90,40 Z" fill="#fff"/>
  </g>
  <g transform="translate(700, 560)">
    <path d="M 100,0 L 110,40 L 125,35 L 115,65 L 145,80 L 115,90 L 125,120 L 105,105 L 100,140 L 95,105 L 75,120 L 85,90 L 55,80 L 85,65 L 75,35 L 90,40 Z" fill="#fff"/>
  </g>
</svg>
